<svg xmlns="http://www.w3.org/2000/svg" width="600" height="400" viewBox="0 0 600 400">
  <!-- Arka plan -->
  <rect width="600" height="400" fill="#f0f9ff" />
  
  <!-- Teknisyen figürü -->
  <circle cx="300" cy="150" r="50" fill="#2563eb" />
  <rect x="275" y="200" width="50" height="100" fill="#1e40af" />
  <rect x="250" y="200" width="25" height="80" fill="#1e40af" />
  <rect x="325" y="200" width="25" height="80" fill="#1e40af" />
  <rect x="275" y="300" width="20" height="50" fill="#1e3a8a" />
  <rect x="305" y="300" width="20" height="50" fill="#1e3a8a" />
  
  <!-- Tamir aletleri -->
  <rect x="100" y="250" width="100" height="20" rx="5" fill="#6b7280" />
  <circle cx="100" cy="260" r="10" fill="#374151" />
  <rect x="400" y="250" width="30" height="80" rx="5" fill="#6b7280" />
  <rect x="400" y="230" width="30" height="20" rx="2" fill="#374151" />
  <circle cx="450" cy="280" r="30" fill="#9ca3af" />
  <circle cx="450" cy="280" r="20" fill="#6b7280" />
  <circle cx="450" cy="280" r="10" fill="#374151" />
  
  <!-- Buzdolabı -->
  <rect x="50" y="150" width="70" height="120" rx="5" fill="#e5e7eb" stroke="#2563eb" stroke-width="2" />
  <line x1="50" y1="190" x2="120" y2="190" stroke="#2563eb" stroke-width="2" />
  <rect x="60" y="200" width="10" height="20" rx="2" fill="#2563eb" />
  
  <!-- Çamaşır makinesi -->
  <rect x="480" y="150" width="70" height="120" rx="5" fill="#e5e7eb" stroke="#2563eb" stroke-width="2" />
  <circle cx="515" cy="200" r="25" fill="none" stroke="#2563eb" stroke-width="2" />
  <circle cx="515" cy="200" r="20" fill="none" stroke="#2563eb" stroke-width="1" stroke-dasharray="2,2" />
</svg> 