<svg xmlns="http://www.w3.org/2000/svg" width="800" height="400" viewBox="0 0 800 400">
  <!-- Arka plan -->
  <rect width="800" height="400" fill="#f0f9ff" />
  
  <!-- Klima tamir görseli -->
  <rect x="200" y="100" width="400" height="100" rx="5" fill="#e5e7eb" stroke="#2563eb" stroke-width="3" />
  <rect x="220" y="110" width="360" height="80" rx="3" fill="#ffffff" stroke="#2563eb" stroke-width="1" />
  <path d="M240 200 L240 300 M560 200 L560 300" stroke="#2563eb" stroke-width="2" stroke-dasharray="5,5" />
  <path d="M220 300 L580 300" stroke="#2563eb" stroke-width="3" />
  
  <!-- Hava çıkış göstergesi -->
  <path d="M300 150 C280 150, 280 170, 300 170" fill="none" stroke="#2563eb" stroke-width="2" />
  <path d="M320 150 C300 150, 300 170, 320 170" fill="none" stroke="#2563eb" stroke-width="2" />
  <path d="M340 150 C320 150, 320 170, 340 170" fill="none" stroke="#2563eb" stroke-width="2" />
  
  <!-- Teknisyen -->
  <circle cx="150" cy="150" r="40" fill="#2563eb" />
  <rect x="130" y="190" width="40" height="80" fill="#1e40af" />
  <rect x="110" y="190" width="20" height="60" fill="#1e40af" />
  <rect x="170" y="190" width="20" height="60" fill="#1e40af" />
  
  <!-- Tamir aletleri -->
  <rect x="650" y="200" width="80" height="10" rx="2" fill="#6b7280" />
  <circle cx="650" cy="205" r="5" fill="#374151" />
  <rect x="620" y="220" width="30" height="40" rx="2" fill="#9ca3af" />
  <circle cx="670" cy="230" r="10" fill="#6b7280" />
  
  <!-- Termometre -->
  <rect x="400" y="220" width="10" height="60" rx="5" fill="#ef4444" />
  <circle cx="405" cy="290" r="10" fill="#ef4444" />
</svg> 